# xmcd
#
# Track frame offsets: 
#        150
#        22312
#        52746
#        107155
#        133713
#        151847
#        175286
#
# Disc length: 2652 seconds
#
# Revision: 0
# Processed by: cddbd v1.5.2PL0 Copyright (c) Steve Scherf et al.
# Submitted via: ExactAudioCopy v0.99pb4
#
DISCID=560a5a07
DTITLE=Alabama - Alabama and Friends At The Ryman
DYEAR=2014
DGENRE=Country
TTITLE0=If You're Gonna Play In Texas (You Gotta Have A Fiddle In The 
TTITLE0=Band)
TTITLE1=Tennessee River (featuring Jason Aldean)
TTITLE2=Dixieland Delight
TTITLE3=Song Of The South
TTITLE4=One In The World
TTITLE5=Forever's As Far As I'll Go (featuring Trisha Yearwood)
TTITLE6=Dancin', Shaggin' On The Boulevard
EXTD=
EXTT0=
EXTT1=
EXTT2=
EXTT3=
EXTT4=
EXTT5=
EXTT6=
PLAYORDER=
